<svg id="Layer_1" enable-background="new 0 0 496.043 496.043" height="512" viewBox="0 0 496.043 496.043" width="512" xmlns="http://www.w3.org/2000/svg"><path d="m306.967 69.341c-43.531 0-83.154 23.398-104.347 60.613-69.955-12.025-128.6 46.922-123.454 109.691-63.989 4.254-100.4 75.887-65.828 130.174-9.487 10.199-2.259 26.883 11.705 26.883h101c23.159 0 42-18.841 42-42s-18.841-42-42-42h-11c-8.837 0-16 7.164-16 16s7.163 16 16 16h11c5.514 0 10 4.486 10 10s-4.486 10-10 10h-75.111c-11.895-9.994-18.889-24.779-18.889-40.442 0-32.902 29.984-58.049 62.674-51.885 11.027 2.084 20.723-7.572 18.704-18.604-1.044-5.707-2.516-15.573-2.516-19.64 0-40.653 33.073-73.726 73.726-73.726 35.548 0 66.033 25.32 72.488 60.205.834 4.502 3.556 8.432 7.477 10.794 10.085 6.075 14.166-1.793 35.11-1.793 40.652 0 73.726 33.073 73.726 73.726s-33.073 73.726-73.726 73.726c-8.837 0-16 7.164-16 16s7.163 16 16 16c73.662 0 124.627-73.711 99.173-142.372 65.262-77.325 10.294-197.35-91.912-197.35zm-22.677 129.39c-9.004-25.442-27.334-46.062-50.585-58.248 16.149-24.19 43.457-39.142 73.262-39.142 69.486 0 111.288 76.998 74.511 135.056-23.529-28.69-60.145-43.086-97.188-37.666zm211.753-9.39c0 8.836-7.163 16-16 16h-18c-8.837 0-16-7.164-16-16s7.163-16 16-16h18c8.837 0 16 7.164 16 16zm-205.152-155v-18c0-8.836 7.163-16 16-16s16 7.164 16 16v18c0 8.836-7.163 16-16 16s-16-7.164-16-16zm149.719 21.326c6.249 6.248 6.249 16.379 0 22.627l-12.728 12.727c-3.124 3.125-7.219 4.687-11.313 4.687-14.127 0-21.421-17.207-11.313-27.314l12.728-12.727c6.247-6.249 16.378-6.249 22.626 0zm-267.393 22.734c-6.249-6.249-6.248-16.379 0-22.627 6.249-6.248 16.38-6.248 22.627 0l12.728 12.728c10.112 10.111 2.81 27.313-11.313 27.313-4.096 0-8.189-1.562-11.313-4.687zm104.826 276.301c0 23.159-18.841 42-42 42h-31c-8.837 0-16-7.164-16-16s7.163-16 16-16h31c5.514 0 10-4.486 10-10s-4.486-10-10-10h-11c-8.837 0-16-7.164-16-16s7.163-16 16-16h11c23.16 0 42 18.842 42 42zm-30 99c0 23.159-18.841 42-42 42h-11c-8.837 0-16-7.164-16-16s7.163-16 16-16h11c5.514 0 10-4.486 10-10s-4.486-10-10-10h-101c-8.837 0-16-7.164-16-16s7.163-16 16-16h101c23.16 0 42 18.842 42 42z"/></svg>