<svg id="Layer_1" enable-background="new 0 0 496.077 496.077" height="512" viewBox="0 0 496.077 496.077" width="512" xmlns="http://www.w3.org/2000/svg"><path d="m280.774 355.077c0 23.159-18.841 42-42 42h-31c-8.836 0-16-7.164-16-16s7.164-16 16-16h31c5.514 0 10-4.486 10-10s-4.486-10-10-10h-11c-8.836 0-16-7.164-16-16s7.164-16 16-16h11c23.159 0 42 18.842 42 42zm-72 57h-101c-8.836 0-16 7.164-16 16s7.164 16 16 16h101c5.514 0 10 4.486 10 10s-4.486 10-10 10h-11c-8.836 0-16 7.164-16 16s7.164 16 16 16h11c23.159 0 42-18.841 42-42s-18.841-42-42-42zm283.983-200.44c-11.995 43.426-41.999 82.229-85.308 104.331-6.093 52.545-50.86 93.471-105.012 93.471-8.836 0-16-7.164-16-16s7.164-16 16-16c40.653 0 73.726-33.073 73.726-73.726 0-49.534-48.248-85.257-95.799-70.368-9.152 2.865-18.767-2.922-20.513-12.359-6.455-34.885-36.94-60.205-72.488-60.205-40.653 0-73.726 33.073-73.726 73.726 0 4.05 1.471 13.924 2.516 19.643 2.018 11.042-7.686 20.676-18.705 18.601-32.728-6.178-62.673 19.029-62.673 51.885 0 15.663 6.994 30.448 18.888 40.442h75.112c5.514 0 10-4.486 10-10s-4.486-10-10-10h-11c-8.836 0-16-7.164-16-16s7.164-16 16-16h11c23.159 0 42 18.841 42 42s-18.841 42-42 42c-10.489 0-90.969 0-101 0-13.981 0-21.177-16.7-11.705-26.883-34.593-54.321 1.872-125.923 65.828-130.175-4.017-49.003 32.082-99.87 86.927-109.61 22.228-98.964 127.225-155.313 221.804-119.654 11.598 4.372 14.024 19.755 4.328 27.483-21.088 16.809-33.183 41.9-33.183 68.838 0 57.739 55.157 100.306 111.32 84.872 11.961-3.281 22.965 7.734 19.663 19.688zm-40.047 15.405c-101.233 2.477-159.027-114.04-98.153-193.055-69.59-11.818-134.175 32.157-152.551 95.825 39.06 5.431 71.91 32.261 85.015 69.294 55.671-8.145 106.465 28.45 118.488 81.026 20.078-13.193 36.48-31.653 47.201-53.09z"/></svg>