<svg id="Layer_1" enable-background="new 0 0 496.193 496.193" height="512" viewBox="0 0 496.193 496.193" width="512" xmlns="http://www.w3.org/2000/svg"><path d="m117.241 397.193h-101c-8.836 0-16-7.164-16-16s7.164-16 16-16h101c5.514 0 10-4.486 10-10s-4.486-10-10-10h-11c-8.836 0-16-7.164-16-16s7.164-16 16-16h11c23.159 0 42 18.841 42 42s-18.841 42-42 42zm110-84h-11c-8.836 0-16 7.164-16 16s7.164 16 16 16h11c5.514 0 10 4.486 10 10s-4.486 10-10 10h-31c-8.836 0-16 7.164-16 16s7.164 16 16 16h31c23.159 0 42-18.841 42-42s-18.841-42-42-42zm-30 99h-101c-8.836 0-16 7.164-16 16s7.164 16 16 16h101c5.514 0 10 4.486 10 10s-4.486 10-10 10h-11c-8.836 0-16 7.164-16 16s7.164 16 16 16h11c23.159 0 42-18.841 42-42s-18.841-42-42-42zm298.147-212.674c-18.621 68.497-81.255 116.336-152.316 116.336-87.028 0-157.831-70.803-157.831-157.831 0-110.085 110.605-186.66 213.758-147.768 11.599 4.374 14.023 19.755 4.328 27.483-19.498 15.541-30.68 38.739-30.68 63.646 0 44.863 36.499 81.362 81.362 81.362 18.945 0 21.696-5.171 30.153-2.861 8.519 2.326 13.542 11.113 11.226 19.633zm-39.948 15.22c-94.688 1.163-147.62-107.115-92.408-181.048-77.606-12.001-145.791 47.902-145.791 124.333 0 69.383 56.448 125.831 125.831 125.831 48.071 0 91.303-27.449 112.368-69.116z"/></svg>