<svg id="Layer_1" enable-background="new 0 0 496.09 496.09" height="512" viewBox="0 0 496.09 496.09" width="512" xmlns="http://www.w3.org/2000/svg"><path d="m78.757 441.09v10c0 8.836-7.164 16-16 16s-16-7.164-16-16v-10c0-8.836 7.164-16 16-16s16 7.164 16 16zm54-16c-8.836 0-16 7.164-16 16v39c0 8.836 7.164 16 16 16s16-7.164 16-16v-39c0-8.836-7.164-16-16-16zm70 0c-8.836 0-16 7.164-16 16v10c0 8.836 7.164 16 16 16s16-7.164 16-16v-10c0-8.836-7.164-16-16-16zm70 0c-8.836 0-16 7.164-16 16v39c0 8.836 7.164 16 16 16s16-7.164 16-16v-39c0-8.836-7.164-16-16-16zm70 0c-8.836 0-16 7.164-16 16v10c0 8.836 7.164 16 16 16s16-7.164 16-16v-10c0-8.836-7.164-16-16-16zm149.982-213.44c-12.315 44.588-43.066 82.803-85.386 104.371-6.398 52.219-51.015 92.792-104.934 92.792h-214.859c-46.761 0-84.803-38.043-84.803-84.803 0-44.851 35.001-81.682 79.123-84.615-4.024-49.095 32.192-99.972 87.082-109.636 22.528-98.396 127.093-154.642 221.65-118.99 11.597 4.373 14.024 19.755 4.328 27.483-21.088 16.809-33.183 41.899-33.183 68.838 0 57.741 55.159 100.304 111.321 84.872 11.955-3.285 22.963 7.735 19.661 19.688zm-116.593 91.437c0-40.653-33.073-73.726-73.726-73.726-20.969 0-25.013 7.875-35.11 1.793-3.921-2.363-6.643-6.292-7.476-10.794-6.455-34.885-36.94-60.205-72.488-60.205-40.653 0-73.726 33.073-73.726 73.726 0 4.067 1.471 13.933 2.516 19.64 2.021 11.042-7.686 20.683-18.706 18.603-32.729-6.176-62.672 19.029-62.672 51.885 0 29.116 23.687 52.803 52.803 52.803h214.859c40.652.001 73.726-33.073 73.726-73.725zm76.547-76.032c-101.482 2.457-158.812-114.321-98.153-193.055-68.902-11.703-133.632 31.426-152.375 95.211 38.983 5.487 71.754 32.292 84.84 69.269 55.519-8.126 106.744 28.366 118.61 81.585 20.021-13.188 36.379-31.616 47.078-53.01z"/></svg>