<svg id="Layer_1" enable-background="new 0 0 483.028 483.028" height="512" viewBox="0 0 483.028 483.028" width="512" xmlns="http://www.w3.org/2000/svg"><path d="m419.66 67.789c-3.209-90.813-359.974-90.359-359.974 1.211 0 11.12 5.414 25.532 27.036 38.637 4.843 4.554 55.483 31.833 78.112 88.313 16.471 41.112 9.854 77.514 7.27 113.418-.4 1.707-.497 3.434-.337 5.125-1.616 26.932-.393 54.594 14.807 83.046 20.958 39.229 62.613 67.784 123.81 84.871 13.398 3.743 24.859-10.285 18.564-22.664-16.903-33.239-22.489-64.35-16.602-92.468 9.636-46.02 45.967-62.808 75.915-110.81 30.895-49.52 41.453-113 31.399-188.679zm-179.974-35.788c95.038 0 148 25.937 148 37 0 1.294-2.215 5.405-10.448 10.609-17.686-10.32-36.532-18.379-56.151-23.992-44.175-12.638-99.208-12.206-144.483-3.317-8.671 1.702-14.32 10.112-12.618 18.783s10.113 14.318 18.783 12.618c49.023-9.624 106.766-8.767 154.308 11.475-27.471 7.016-61.431 10.825-97.391 10.825-95.038 0-148-25.937-148-37 0-10.114 49.873-37.001 148-37.001zm121.425 207.531c-10.162 16.289-21.804 29.123-33.063 41.534-21.834 24.068-69.563 72.015-41.649 159.406-49.064-20.308-81.881-52.098-83.143-105.319 17.779 4.145 36.002 3.876 53.459-.667 8.552-2.225 13.68-10.962 11.455-19.514-2.225-8.551-10.958-13.681-19.514-11.455-14.322 3.726-29.274 3.431-43.897-1.099 1.962-22.846 4.72-47.768 1.1-75.077 45.585 10.546 92.941 5.07 135.003-16.04 7.898-3.963 11.087-13.579 7.123-21.477-3.962-7.897-13.581-11.086-21.477-7.123-41.557 20.856-87.924 22.889-129.096 9.026-7.635-21.87-19.253-41.781-34.076-59.581 76.914 12.54 178.703 4.995 227.773-23.594 1.94 51.944-8.103 95.885-29.998 130.98z"/></svg>