<svg id="Layer_1" enable-background="new 0 0 496 496" height="512" viewBox="0 0 496 496" width="512" xmlns="http://www.w3.org/2000/svg"><path d="m480 60.022c-10.866 0-459.094 0-464 0-8.836 0-16 7.164-16 16s7.164 16 16 16h12.206l14.895 131.797c.657 5.814 4.436 10.806 9.853 13.017l41.425 16.908 22.072 91.048c3.922 16.18 27.013 16.263 31.067.13l23.916-95.177 61.465 175.565c5.554 15.863 28.833 13.423 30.971-3.252l19.461-151.796 49.11-65.223 21.895 49.142 10.743 107.436c1.63 16.299 23.974 19.87 30.571 4.839 58.879-134.114 55.414-124.73 55.349-129.648-.141-10.431-.834-61.669-.976-72.164l15.86-72.62h14.117c8.837 0 16-7.164 16-16s-7.163-16.002-16-16.002zm-61.886 111.579-15.029-9.576-6.511-27.667c-2.023-8.602-10.635-13.937-19.239-11.91-8.602 2.024-13.934 10.638-11.909 19.239l8 34c.955 4.061 3.458 7.587 6.977 9.829l38.229 24.358.323 23.894-28.1 64.005-4.934-49.343c-.366-3.663 2.763 4.213-46.306-105.919-3.598-8.072-13.059-11.7-21.127-8.104-8.071 3.597-11.699 13.055-8.104 21.127l7.165 16.08-46.792 62.146-17.462-34.925 18.859-55.68c2.835-8.37-1.652-17.452-10.021-20.287-8.367-2.834-17.453 1.652-20.287 10.021l-21 62c-1.37 4.044-1.066 8.469.843 12.288l29.822 59.642-10.774 84.035-55.137-157.487 10.917-43.446c2.153-8.57-3.048-17.264-11.618-19.417-8.572-2.151-17.263 3.049-19.417 11.618-.575 2.288-31.624 125.851-33.204 132.138l-8.729-36.008c-1.211-4.994-4.746-9.102-9.503-11.044l-40.213-16.414-2.35-20.793 30.209-19.547c3.777-2.444 6.351-6.365 7.09-10.803l5-30c1.453-8.716-4.436-16.96-13.152-18.413-8.717-1.451-16.96 4.436-18.413 13.152l-3.839 23.034-10.91 7.059-7.058-62.461h372.718c-17.195 78.735-15.209 65.168-15.014 79.579z"/></svg>