<svg id="Layer_1" enable-background="new 0 0 496.023 496.023" height="512" viewBox="0 0 496.023 496.023" width="512" xmlns="http://www.w3.org/2000/svg"><path d="m496.023 479.775c0 8.837-7.164 16-16 16-10.56 0-454.311 0-464 0-8.836 0-16-7.163-16-16s7.164-16 16-16h25v-9c0-8.837 7.164-16 16-16s16 7.163 16 16v9h72v-9c0-8.837 7.164-16 16-16s16 7.163 16 16v9h85v-9c0-8.837 7.164-16 16-16s16 7.163 16 16v9h129.528l.016-9.028c.016-8.826 7.176-15.972 16-15.972 8.849 0 16.016 7.181 16 16.028l-.016 8.972h24.472c8.836 0 16 7.163 16 16zm-56.263-134.2c-8.831-.016-16.013 7.129-16.028 15.972l-.083 46.6c-.016 8.837 7.135 16.013 15.972 16.028 8.92 0 16.013-7.2 16.028-15.972l.083-46.6c.015-8.837-7.136-16.013-15.972-16.028zm16.136-77.172c.016-8.837-7.135-16.013-15.972-16.028-8.831-.016-16.013 7.129-16.028 15.972l-.083 46.6c-.016 8.837 7.135 16.013 15.972 16.028 8.92 0 16.013-7.2 16.028-15.972zm-305.317-20.733c-1.567 1.35-106.462 115.763-108.168 119.604-1.87 4.193-1.388 4.984-1.388 31.5 0 8.837 7.164 16 16 16s16-7.163 16-16v-18.798l76.608-83.974c7.085 7.188 19.035 6.141 24.707-2.36l87.685 80.223v17.91c0 8.837 7.164 16 16 16s16-7.163 16-16v-17.622l133.745-142.053c9.688 11.445 28.185 4.448 28.211-10.297l.044-25c.025-14.014-17.747-22.545-28.149-11.496l-150.188 159.516-105.863-96.853c-5.832-5.343-14.996-5.695-21.244-.3zm10.444 77.771c-8.836 0-16 7.163-16 16v56.667c0 8.837 7.164 16 16 16s16-7.163 16-16v-56.667c0-8.837-7.164-16-16-16zm-149.578-304.243 16.264-16.264c6.248-6.248 16.379-6.248 22.627 0l16.264 16.264c24.521 24.523 7.001 66.559-27.578 66.559-34.576-.001-52.1-42.034-27.577-66.559zm22.628 32.527c2.729 2.729 7.17 2.729 9.899-.001 2.729-2.729 2.729-7.17 0-9.899l-4.95-4.95-4.95 4.95c-2.728 2.729-2.728 7.171.001 9.9zm37.372 77.473 16.264-16.264c6.248-6.248 16.379-6.248 22.627 0l16.264 16.264c15.205 15.206 15.205 39.948 0 55.154-15.207 15.205-39.946 15.206-55.154.001-15.206-15.207-15.206-39.949-.001-55.155zm22.628 32.527c2.729 2.729 7.171 2.729 9.899-.001 2.729-2.729 2.729-7.17 0-9.899l-4.95-4.95-4.95 4.95c-2.728 2.729-2.728 7.171.001 9.9zm47.372-112.527 16.264-16.264c6.248-6.248 16.379-6.248 22.627 0l16.264 16.264c24.521 24.523 7.001 66.559-27.578 66.559-34.576-.001-52.1-42.034-27.577-66.559zm22.628 32.527c2.729 2.729 7.17 2.729 9.899-.001 2.729-2.729 2.729-7.17 0-9.899l-4.95-4.95-4.95 4.95c-2.728 2.729-2.728 7.171.001 9.9z"/></svg>