<svg id="Layer_1" enable-background="new 0 0 496 496" height="512" viewBox="0 0 496 496" width="512" xmlns="http://www.w3.org/2000/svg"><path d="m346.72 98.106c-16.857-51.783-65.436-87.857-121.22-87.857-77.079 0-134.418 68.038-126.8 138.038-54.679 1.488-98.7 46.431-98.7 101.462 0 46.22 31.158 86.338 75.408 98.083l-2.346 26.506c-.828 9.352 6.549 17.41 15.938 17.41h44.28l-7.197 70.372c-1.686 16.485 19.911 24.336 29.186 10.568l81.822-121.44h131.409c70.304 0 127.5-57.196 127.5-127.5 0-78.59-70.971-139.134-149.28-125.642zm21.78 221.143h-115.889c-1.635-7.291-8.106-12.5-15.611-12.5h-42.595l9.133-37.184c2.108-8.582-3.14-17.247-11.722-19.354-8.581-2.108-17.247 3.14-19.354 11.722l-14 57c-2.476 10.081 5.17 19.816 15.538 19.816h32.927l-42.513 63.098 2.502-24.47c.965-9.434-6.448-17.628-15.917-17.628h-44.521c1.124-12.702 7.44-84.076 8.459-95.59.779-8.802-5.725-16.569-14.527-17.348-8.791-.778-16.569 5.725-17.348 14.527l-4.776 53.973c-27.255-9.555-46.286-35.399-46.286-65.562 0-43.279 39.445-76.413 82.484-68.292 11.032 2.08 20.725-7.572 18.705-18.603-1.233-6.737-3.189-19.51-3.189-25.105 0-52.659 42.841-95.5 95.5-95.5 46.046 0 85.535 32.8 93.896 77.991 1.745 9.429 11.353 15.226 20.514 12.358 61.487-19.25 124.09 26.87 124.09 91.151 0 52.659-42.841 95.5-95.5 95.5zm-60.187 75.376-10 15c-4.903 7.355-14.839 9.338-22.188 4.438-7.353-4.902-9.34-14.835-4.438-22.188l10-15c4.901-7.353 14.836-9.34 22.188-4.438 7.353 4.901 9.34 14.835 4.438 22.188zm-36.074 56.108-19 28c-4.962 7.314-14.914 9.216-22.223 4.256-7.312-4.962-9.217-14.912-4.256-22.223l19-28c4.963-7.312 14.914-9.217 22.224-4.256 7.312 4.961 9.217 14.911 4.255 22.223zm126.074-56.108-10 15c-4.903 7.355-14.839 9.338-22.188 4.438-7.353-4.902-9.34-14.835-4.438-22.188l10-15c4.902-7.353 14.837-9.34 22.188-4.438 7.353 4.901 9.34 14.835 4.438 22.188zm-36.074 56.108-19 28c-4.961 7.312-14.912 9.217-22.224 4.256-7.312-4.962-9.217-14.912-4.255-22.223l19-28c4.961-7.312 14.912-9.217 22.224-4.256s9.217 14.911 4.255 22.223z"/></svg>