<svg id="Layer_1" enable-background="new 0 0 496 496" height="512" viewBox="0 0 496 496" width="512" xmlns="http://www.w3.org/2000/svg"><path d="m370.898 397c0 20.402-16.598 37-37 37s-37-16.598-37-37c0-14.675 8.587-27.38 21-33.358v-200.642c0-8.837 7.164-16 16-16s16 7.163 16 16v200.642c12.412 5.978 21 18.683 21 33.358zm107-325c0 8.837-7.164 16-16 16h-61v68h41c8.836 0 16 7.163 16 16s-7.164 16-16 16h-41v68h21c8.836 0 16 7.163 16 16s-7.164 16-16 16h-21v36.11c20.432 18.722 32 44.863 32 72.89 0 54.589-44.411 99-99 99s-99-44.411-99-99c0-28.026 11.568-54.168 32-72.89v-257.11c0-36.944 30.056-67 67-67 33.197 0 60.817 24.273 66.082 56h61.918c8.836 0 16 7.163 16 16zm-77 325c0-20.799-9.417-40.065-25.835-52.86-3.89-3.031-6.165-7.688-6.165-12.62v-264.52c0-19.299-15.701-35-35-35s-35 15.701-35 35v264.52c0 4.933-2.275 9.589-6.165 12.62-16.418 12.795-25.835 32.062-25.835 52.86 0 36.944 30.056 67 67 67s67-30.056 67-67zm-343.768-309.019c-34.549 0-52.126-42.01-27.577-66.559l16.263-16.263c6.243-6.244 16.38-6.248 22.627 0l16.264 16.264c24.521 24.522 7.002 66.558-27.577 66.558zm4.95-43.931-4.95-4.949-4.949 4.949c-2.729 2.729-2.729 7.171 0 9.9 2.73 2.729 7.171 2.729 9.9-.001 2.728-2.728 2.728-7.17-.001-9.899zm82.628 87.373c15.205 15.206 15.205 39.948 0 55.154-15.206 15.205-39.948 15.206-55.154.001-15.207-15.207-15.207-39.949 0-55.155l16.263-16.264c6.243-6.244 16.38-6.248 22.627 0zm-22.628 22.627-4.95-4.949-4.949 4.949c-2.729 2.729-2.729 7.171 0 9.9 2.73 2.729 7.171 2.73 9.9-.001 2.728-2.728 2.728-7.17-.001-9.899zm92.628-102.627c15.205 15.206 15.205 39.948 0 55.154-15.206 15.205-39.948 15.206-55.154.001-15.207-15.207-15.207-39.949 0-55.155l16.263-16.264c6.243-6.244 16.38-6.248 22.627 0zm-22.628 22.627-4.95-4.949-4.949 4.949c-2.729 2.729-2.729 7.171 0 9.9 2.73 2.729 7.171 2.73 9.9-.001 2.728-2.728 2.728-7.17-.001-9.899z"/></svg>