<svg id="Layer_1" enable-background="new 0 0 496 496" height="512" viewBox="0 0 496 496" width="512" xmlns="http://www.w3.org/2000/svg"><path d="m370.884 397c0 20.402-16.598 37-37 37s-37-16.598-37-37c0-14.675 8.587-27.38 21-33.358v-200.642c0-8.837 7.164-16 16-16s16 7.163 16 16v200.642c12.413 5.978 21 18.683 21 33.358zm107-325c0 8.837-7.164 16-16 16h-61v68h41c8.836 0 16 7.163 16 16s-7.164 16-16 16h-41v68h21c8.836 0 16 7.163 16 16s-7.164 16-16 16h-21v36.11c20.432 18.722 32 44.863 32 72.89 0 54.589-44.411 99-99 99s-99-44.411-99-99c0-28.026 11.568-54.168 32-72.89v-257.11c0-36.944 30.056-67 67-67 33.197 0 60.817 24.273 66.082 56h61.918c8.836 0 16 7.163 16 16zm-77 325c0-20.799-9.417-40.065-25.835-52.86-3.89-3.031-6.165-7.688-6.165-12.62v-264.52c0-19.299-15.701-35-35-35s-35 15.701-35 35v264.52c0 4.933-2.275 9.589-6.165 12.62-16.418 12.795-25.835 32.062-25.835 52.86 0 36.944 30.056 67 67 67s67-30.056 67-67zm-159.768-285.5c0-8.837-7.164-16-16-16h-9.879c-8.836 0-16 7.163-16 16s7.164 16 16 16h9.879c8.837 0 16-7.163 16-16zm-111.5-69.621c8.836 0 16-7.163 16-16v-9.879c0-8.837-7.164-16-16-16s-16 7.163-16 16v9.879c0 8.837 7.164 16 16 16zm71.772 20.399 7.026-7.022c6.25-6.247 6.252-16.377.005-22.627-6.247-6.251-16.377-6.253-22.627-.006l-7.026 7.022c-6.25 6.247-6.252 16.378-.005 22.627 6.243 6.248 16.374 6.256 22.627.006zm-132.376 4.743c14.13 0 21.421-17.212 11.311-27.316l-7.026-7.022c-6.25-6.247-16.381-6.245-22.627.006-6.247 6.249-6.245 16.38.005 22.627 6.838 6.834 10.27 11.705 18.337 11.705zm-9.016 44.891c0-8.837-7.164-16-16-16h-9.879c-8.836 0-16 7.163-16 16s7.164 16 16 16h9.879c8.836 0 16-7.163 16-16zm141.535 49.05c-6.25-6.248-16.381-6.244-22.627.006s-6.244 16.381.006 22.627l7.026 7.022c6.248 6.245 16.379 6.246 22.627-.006 6.247-6.25 6.244-16.381-.006-22.627zm-71.915 20.159c-8.836 0-16 7.163-16 16v9.879c0 8.837 7.164 16 16 16s16-7.163 16-16v-9.879c0-8.837-7.163-16-16-16zm-71.971-20.216-7.026 7.022c-10.117 10.112-2.812 27.316 11.311 27.316 8.144 0 11.651-5.023 18.337-11.706 6.25-6.247 6.252-16.378.005-22.627-6.247-6.25-16.377-6.252-22.627-.005zm130.471-49.199c0 32.144-26.15 58.294-58.294 58.294s-58.294-26.15-58.294-58.294 26.151-58.294 58.294-58.294 58.294 26.151 58.294 58.294zm-32 0c0-14.499-11.795-26.294-26.294-26.294s-26.294 11.795-26.294 26.294 11.795 26.294 26.294 26.294 26.294-11.795 26.294-26.294z"/></svg>