<svg id="Layer_1" enable-background="new 0 0 496 496" height="512" viewBox="0 0 496 496" width="512" xmlns="http://www.w3.org/2000/svg"><path d="m179 87.518v-18.518c0-8.837 7.163-16 16-16s16 7.163 16 16v18.518c0 8.837-7.163 16-16 16s-16-7.164-16-16zm-108.903 58.44c3.124 3.123 7.217 4.684 11.311 4.684 14.128 0 21.423-17.211 11.311-27.316l-13.169-13.162c-6.25-6.247-16.381-6.245-22.627.006-6.247 6.25-6.244 16.381.006 22.627zm-35.579 86.813h-18.518c-8.837 0-16 7.163-16 16s7.163 16 16 16h18.518c8.837 0 16-7.163 16-16s-7.164-16-16-16zm160.482 159.711c-8.837 0-16 7.163-16 16v18.518c0 8.837 7.163 16 16 16s16-7.163 16-16v-18.518c0-8.836-7.163-16-16-16zm-125.01-41.985-13.169 13.163c-10.097 10.094-2.839 27.316 11.312 27.316 4.094 0 8.188-1.562 11.312-4.684l13.169-13.163c6.249-6.247 6.252-16.378.005-22.628-6.25-6.25-16.38-6.251-22.629-.004zm426.01-103.736c0 120.094-136.483 189.592-233.471 119.873-90.023 51.264-203.12-13.961-203.12-118.248 0-102.87 110.428-168.441 200.593-119.645 96.782-72.718 235.998-3.364 235.998 118.02zm-244.752-62.401c35.188 11.81 71.255-13.088 72.521-50.481-30.315 6.623-56.221 25.177-72.521 50.481zm-14.015 159.246c-47.645-54.647-48.548-135.617-2.041-191.295-68.432-28.372-143.784 22.253-143.784 96.075.001 74.954 77.382 125.356 145.825 95.22zm226.767-96.845c0-61.251-47.909-111.515-108.221-115.307.295 62.424-61.122 103.659-117.989 82.062-22.351 74.268 33.679 148.791 110.664 148.791 63.712 0 115.546-51.834 115.546-115.546zm-39 35.239c0 35.841-29.159 65-65 65s-65-29.159-65-65 29.159-65 65-65 65 29.159 65 65zm-32 0c0-18.196-14.804-33-33-33s-33 14.804-33 33 14.804 33 33 33 33-14.804 33-33z"/></svg>