<svg id="Layer_1" enable-background="new 0 0 496 496" height="512" viewBox="0 0 496 496" width="512" xmlns="http://www.w3.org/2000/svg"><path d="m100.051 457.936-6.109 16.078c-2.368 6.231-8.335 10.317-14.957 10.317-3.802 0-4.405-.557-21.762-7.153-8.26-3.139-12.412-12.379-9.273-20.64l6.109-16.078c3.137-8.254 12.381-12.413 20.641-9.273l16.078 6.11c8.259 3.139 12.411 12.379 9.273 20.639zm84.549-21.298h-17.2c-8.837 0-16 7.163-16 16v17.2c0 8.837 7.163 16 16 16h17.2c8.837 0 16-7.163 16-16v-17.2c0-8.837-7.163-16-16-16zm106.404.851c-4.419-7.654-14.205-10.273-21.856-5.856-15.106 8.721-20.194 10.268-22.351 18.315-2.159 8.063 1.496 11.964 10.199 27.037 4.419 7.654 14.205 10.273 21.856 5.856 15.106-8.721 20.194-10.268 22.351-18.315 2.158-8.059-1.494-11.96-10.199-27.037zm82.596-6.851h-17.2c-8.837 0-16 7.163-16 16v17.2c0 8.837 7.163 16 16 16h17.2c8.837 0 16-7.163 16-16v-17.2c0-8.837-7.163-16-16-16zm-262.979-62.041c-8.043-3.656-17.531-.1-21.187 7.945l-10 22c-3.657 8.044-.1 17.53 7.944 21.187 8.047 3.658 17.532.097 21.187-7.945l10-22c3.658-8.045.1-17.531-7.944-21.187zm100 0c-8.044-3.656-17.531-.1-21.187 7.945l-10 22c-3.657 8.044-.1 17.53 7.944 21.187 8.047 3.658 17.532.097 21.187-7.945l10-22c3.658-8.045.1-17.531-7.944-21.187zm100-2c-8.043-3.656-17.53-.1-21.187 7.945l-10 22c-4.839 10.644 3.024 22.625 14.556 22.625 6.081 0 11.896-3.486 14.575-9.383l10-22c3.658-8.045.1-17.531-7.944-21.187zm90 0c-8.043-3.656-17.53-.1-21.187 7.945l-10 22c-3.657 8.044-.1 17.53 7.944 21.187 8.047 3.658 17.532.097 21.187-7.945l10-22c3.658-8.045.1-17.531-7.944-21.187zm95.379-142.935c0 70.304-57.196 127.5-127.5 127.5h-267c-55.968 0-101.5-45.532-101.5-101.5 0-55.031 44.021-99.974 98.7-101.462-7.621-70.026 49.724-138.038 126.8-138.038 55.784 0 104.362 36.073 121.22 87.857 78.407-13.508 149.28 47.15 149.28 125.643zm-32 0c0-52.659-42.841-95.5-95.5-95.5-26.571 0-30.842 9.283-41.627 2.785-3.922-2.363-6.644-6.292-7.477-10.794-8.361-45.191-47.851-77.991-93.896-77.991-52.659 0-95.5 42.841-95.5 95.5 0 5.595 1.956 18.367 3.189 25.104 2.02 11.038-7.677 20.682-18.705 18.604-43.075-8.127-82.484 25.047-82.484 68.292 0 38.323 31.178 69.5 69.5 69.5h267c52.659 0 95.5-42.841 95.5-95.5z"/></svg>