<svg id="Layer_1" enable-background="new 0 0 496 496" height="512" viewBox="0 0 496 496" width="512" xmlns="http://www.w3.org/2000/svg"><path d="m220.577 194.34c15.205-15.205 15.206-39.946.001-55.153l-16.265-16.264c-6.248-6.248-16.379-6.248-22.627 0l-16.265 16.264c-15.204 15.206-15.204 39.948.001 55.155 15.207 15.204 39.95 15.205 55.155-.002zm-32.527-32.527 4.95-4.95 4.949 4.95c2.729 2.729 2.729 7.171.001 9.899-2.729 2.73-7.171 2.729-9.9 0s-2.729-7.169 0-9.899zm27.372 87.374c-24.52 24.523-7.001 66.559 27.577 66.559 34.549 0 52.127-42.008 27.579-66.559l-16.265-16.264c-6.248-6.248-16.379-6.248-22.627 0zm22.628 22.626 4.95-4.95 4.949 4.95c2.729 2.729 2.729 7.171.001 9.899-2.729 2.731-7.171 2.728-9.9 0-2.729-2.729-2.729-7.169 0-9.899zm92.527-47.473c15.205-15.205 15.206-39.946.001-55.153l-16.265-16.264c-6.248-6.248-16.379-6.248-22.627 0l-16.265 16.264c-15.204 15.206-15.204 39.948.001 55.155 15.207 15.204 39.95 15.205 55.155-.002zm-32.527-32.527 4.95-4.95 4.949 4.95c2.729 2.729 2.729 7.171.001 9.899-2.729 2.731-7.171 2.728-9.9 0-2.729-2.729-2.729-7.169 0-9.899zm36.95-191.813h-174c-35.29 0-64 28.71-64 64v368c0 35.29 28.71 64 64 64h174c35.29 0 64-28.71 64-64v-368c0-35.29-28.71-64-64-64zm-174 32h174c17.645 0 32 14.355 32 32v303.5h-238v-303.5c0-17.645 14.355-32 32-32zm174 432h-174c-17.645 0-32-14.355-32-32v-32.5h238v32.5c0 17.645-14.355 32-32 32zm-56-32c0 8.837-7.163 16-16 16h-30c-8.837 0-16-7.163-16-16s7.163-16 16-16h30c8.837 0 16 7.163 16 16z"/></svg>