<svg id="Layer_1" enable-background="new 0 0 496 496" height="512" viewBox="0 0 496 496" width="512" xmlns="http://www.w3.org/2000/svg"><path d="m335 0h-174c-35.29 0-64 28.71-64 64v368c0 35.29 28.71 64 64 64h174c35.29 0 64-28.71 64-64v-368c0-35.29-28.71-64-64-64zm-174 32h174c17.645 0 32 14.355 32 32v303.5h-238v-303.5c0-17.645 14.355-32 32-32zm174 432h-174c-17.645 0-32-14.355-32-32v-32.5h238v32.5c0 17.645-14.355 32-32 32zm-56-32c0 8.837-7.164 16-16 16h-30c-8.836 0-16-7.163-16-16s7.164-16 16-16h30c8.836 0 16 7.163 16 16zm41.621-240h8.379c8.836 0 16 7.163 16 16s-7.164 16-16 16h-8.379c-8.836 0-16-7.163-16-16s7.163-16 16-16zm-88.621-56.621v-8.379c0-8.837 7.164-16 16-16s16 7.163 16 16v8.379c0 8.837-7.164 16-16 16s-16-7.163-16-16zm55.97 9.957 5.959-5.956c6.25-6.245 16.38-6.244 22.627.007 6.247 6.25 6.244 16.381-.006 22.628-5.872 5.868-9.315 10.639-17.27 10.639-14.129-.001-21.422-17.211-11.31-27.318zm-108.642 16.729c-6.25-6.247-6.253-16.378-.006-22.628s16.377-6.253 22.627-.007l5.959 5.956c10.111 10.106 2.82 27.317-11.311 27.317-7.948.001-11.372-4.744-17.269-10.638zm-28.328 46.285c0-8.837 7.164-16 16-16h8.379c8.836 0 16 7.163 16 16s-7.164 16-16 16h-8.379c-8.836 0-16-7.163-16-16zm165.672 45.838c6.25 6.247 6.253 16.378.006 22.628-6.247 6.249-16.377 6.253-22.627.007l-5.959-5.956c-6.25-6.247-6.253-16.378-.006-22.628 6.247-6.249 16.377-6.254 22.627-.007zm-52.672 26.433v8.379c0 8.837-7.164 16-16 16s-16-7.163-16-16v-8.379c0-8.837 7.164-16 16-16s16 7.163 16 16zm-56.134-32.431c6.247 6.25 6.245 16.381-.004 22.628-5.871 5.869-9.316 10.641-17.271 10.641-14.128 0-21.423-17.209-11.312-27.316l5.959-5.957c6.251-6.248 16.381-6.245 22.628.004zm40.309 5.81c25.268 0 45.825-20.557 45.825-45.825s-20.557-45.825-45.825-45.825c-25.269 0-45.826 20.557-45.826 45.825s20.557 45.825 45.826 45.825zm0-59.65c7.623 0 13.825 6.202 13.825 13.825s-6.202 13.825-13.825 13.825c-7.624 0-13.826-6.202-13.826-13.825s6.202-13.825 13.826-13.825z"/></svg>