<svg id="Layer_1" enable-background="new 0 0 496 496" height="512" viewBox="0 0 496 496" width="512" xmlns="http://www.w3.org/2000/svg"><path d="m335 0h-174c-35.29 0-64 28.71-64 64v368c0 35.29 28.71 64 64 64h174c35.29 0 64-28.71 64-64v-368c0-35.29-28.71-64-64-64zm32 432c0 17.645-14.355 32-32 32h-174c-17.645 0-32-14.355-32-32v-32.5h238zm0-64.5h-238v-303.5c0-17.645 14.355-32 32-32h174c17.645 0 32 14.355 32 32zm-150 64.5c0-8.837 7.164-16 16-16h30c8.836 0 16 7.163 16 16s-7.164 16-16 16h-30c-8.836 0-16-7.163-16-16zm3.5-221.5h-61c-8.836 0-16-7.163-16-16s7.164-16 16-16h61c5.514 0 10-4.486 10-10s-4.486-10-10-10h-11c-8.836 0-16-7.163-16-16s7.164-16 16-16h11c23.159 0 42 18.841 42 42s-18.841 42-42 42zm132-42c0 23.159-18.841 42-42 42h-21c-8.836 0-16-7.163-16-16s7.164-16 16-16h21c5.514 0 10-4.486 10-10s-4.486-10-10-10h-11c-8.836 0-16-7.163-16-16s7.164-16 16-16h11c23.159 0 42 18.841 42 42zm-20 99c0 23.159-18.841 42-42 42h-11c-8.836 0-16-7.163-16-16s7.164-16 16-16h11c5.514 0 10-4.486 10-10s-4.486-10-10-10h-91c-8.836 0-16-7.163-16-16s7.164-16 16-16h91c23.159 0 42 18.841 42 42z"/></svg>