<svg id="Layer_1" enable-background="new 0 0 496 496" height="512" viewBox="0 0 496 496" width="512" xmlns="http://www.w3.org/2000/svg"><path d="m419.598 121.107c-6.874-.799-153.886-17.894-161.199-18.744-13.883-32.963-59.659-35.64-77.198-4.282l-58.45-13.753v-16.092c11.842-5.902 20-18.131 20-32.236 0-19.851-16.149-36-36-36s-36 16.149-36 36c0 14.105 8.158 26.334 20 32.236v395.764h-12.5c-8.836 0-16 7.163-16 16s7.164 16 16 16h56c8.836 0 16-7.163 16-16s-7.164-16-16-16h-11.5v-214.328l58.45-13.753c17.532 31.345 63.309 28.695 77.198-4.282 7.333-.853 154.34-17.947 161.199-18.744 8.067-.938 14.152-7.771 14.152-15.893v-60c0-8.122-6.085-14.955-14.152-15.893zm-296.848-3.906 53 12.471v74.656l-53 12.471zm96 108.799c-6.065 0-11-4.935-11-11v-96c0-6.065 4.935-11 11-11s11 4.935 11 11v96c0 6.065-4.935 11-11 11zm43-91.031 54 6.279v51.505l-54 6.279zm140 47.784-54 6.279v-44.063l54 6.279z"/></svg>