<svg id="Layer_1" enable-background="new 0 0 496 496" height="512" viewBox="0 0 496 496" width="512" xmlns="http://www.w3.org/2000/svg"><path d="m163.293 119.649c-1.917 6.289-7.449 10.668-13.729 11.271-14.144 1.353-22.917-14.928-13.95-26.07 11.117-13.454 32.703-1.903 27.679 14.799zm254.991 93.655c-12.809-29.867-50.515-27.504-62.436 1.027-4.121 36.844-49.018 96.426-121.864 103.056v37.613h37.373l22.313-22.313c6.248-6.248 16.379-6.248 22.627 0 6.148 6.147 6.233 16.045.283 22.313h24.776l22.313-22.313c6.248-6.248 16.379-6.248 22.627 0 6.249 6.248 6.249 16.379 0 22.627l-15.684 15.686 15.686 15.687c6.249 6.248 6.249 16.379 0 22.627-6.249 6.249-16.379 6.248-22.627 0l-22.314-22.314h-24.776c9.702 10.221 2.336 27-11.597 27-4.095 0-8.189-1.563-11.313-4.687l-22.314-22.313h-37.373v93c0 8.837-7.163 16-16 16s-16-7.163-16-16v-93h-75.403c5.95 6.269 5.865 16.166-.283 22.313-6.249 6.249-16.379 6.248-22.627 0-28.788-28.788-28.83-28.232-30.468-32.191-1.148-2.77-1.437-5.585-1.041-8.381.978-6.887 2.654-7.2 31.509-36.055 6.248-6.248 16.379-6.248 22.627 0 6.148 6.147 6.233 16.045.283 22.313h75.403v-38.275c-69.345-9.317-122.995-68.869-122.995-140.724v-23.135l-29.06-9.687c-13.586-4.528-14.803-23.349-1.903-29.584l31.048-15.006c.699-14.194 5.83-28.003 14.486-39.335l-8.099-17.548c-4.998-10.83 3.216-23.175 15.193-22.691l18.353.765 22.458-16.635c5.835-4.322 13.849-4.173 19.519.362l21.17 16.937 20.111 1.608c12.698 1.016 19.167 15.788 11.324 25.811l-9.808 12.533c8.573 11.734 13.208 25.814 13.208 40.606v37c76.746 0 71.647-.055 74.725.132 13.736-69.813 95.825-95.05 147.862-49.129 6.326 5.582 7.343 15.382 1.74 22.169-7.213 8.743-13.578 3.069-21.622 9.838 35.467 18.315 48.224 59.664 26.931 94.359-6.801 11.051-23.229 9.82-28.341-2.066zm-202.071-43.304c2.077 56.392 63.003 65.694 107.911 40.292 2.032-20.011-13.476-40.292-36.688-40.292zm82.969 83.294c-65.856 12.962-122.958-27.251-114.193-100.284v-52.01c0-9.88-3.85-19.175-10.84-26.173-24.003-23.98-63.16-5.392-63.16 27.108v74.064c0 60.654 49.346 110 110 110 29.77.001 57.834-12.19 78.193-32.705zm124.62-82.077c-3.539-12.398-14.811-22.331-29.332-25.609-4.96-1.113-9.372-4.654-11.385-9.783-3.875-9.885 3.739-26.811 12.108-35.628-34.76-10.159-67.744 12.529-72.632 47.4 10.534 6.255 19.215 15.238 25.205 26.133 22.373-17.449 52.613-18.756 76.036-2.513z"/></svg>