<svg id="Layer_1" enable-background="new 0 0 496 496" height="512" viewBox="0 0 496 496" width="512" xmlns="http://www.w3.org/2000/svg"><path d="m295.305 444.937c6.781 11.751 2.741 26.823-9.005 33.604-11.746 6.782-26.821 2.744-33.604-9.003-6.781-11.75-2.741-26.823 9.005-33.605 11.745-6.781 26.821-2.742 33.604 9.004zm-119.305-8.3c-13.564 0-24.6 11.036-24.6 24.601s11.035 24.6 24.6 24.6 24.6-11.035 24.6-24.6-11.036-24.601-24.6-24.601zm34.621-68.04c-8.044-3.657-17.531-.1-21.187 7.944l-10 22c-3.657 8.045-.1 17.53 7.944 21.187 8.043 3.658 17.531.099 21.187-7.944l10-22c3.658-8.045.1-17.531-7.944-21.187zm-100 0c-8.044-3.657-17.53-.1-21.187 7.944l-10 22c-3.657 8.045-.1 17.53 7.944 21.187 8.043 3.658 17.531.099 21.187-7.944l10-22c3.658-8.045.1-17.531-7.944-21.187zm-59.616 79.902c-4.831 12.709 1.545 26.904 14.257 31.734 20.255 7.701 40.21-12.974 31.178-33.076-8.893-19.795-37.618-19.229-45.435 1.342zm444.995-224.836c0 70.304-57.196 127.5-127.5 127.5h-267c-55.968 0-101.5-45.533-101.5-101.5 0-55.031 44.021-99.974 98.7-101.462-7.616-69.982 49.688-138.038 126.8-138.038 55.784 0 104.362 36.073 121.22 87.856 78.409-13.506 149.28 47.15 149.28 125.644zm-32 0c0-64.368-62.68-110.382-124.09-91.15-9.154 2.864-18.768-2.922-20.514-12.358-8.361-45.191-47.851-77.991-93.896-77.991-52.659 0-95.5 42.841-95.5 95.5 0 5.576 1.957 18.358 3.19 25.106 2.02 11.06-7.71 20.681-18.707 18.602-43.062-8.134-82.483 25.045-82.483 68.291 0 38.322 31.178 69.5 69.5 69.5h267c52.659 0 95.5-42.841 95.5-95.5zm-63.379 142.934c-8.043-3.658-17.531-.1-21.187 7.944l-10 22c-3.657 8.045-.1 17.53 7.944 21.187 8.043 3.658 17.531.099 21.187-7.944l10-22c3.658-8.045.1-17.531-7.944-21.187zm-35.621 64.04c-13.564 0-24.6 11.036-24.6 24.601s11.035 24.6 24.6 24.6 24.6-11.035 24.6-24.6-11.036-24.601-24.6-24.601zm-54.379-64.04c-8.043-3.658-17.531-.1-21.187 7.944l-10 22c-3.657 8.045-.1 17.53 7.944 21.187 8.043 3.658 17.531.099 21.187-7.944l10-22c3.658-8.045.1-17.531-7.944-21.187z"/></svg>