<svg id="Layer_1" enable-background="new 0 0 495.99 495.99" height="512" viewBox="0 0 495.99 495.99" width="512" xmlns="http://www.w3.org/2000/svg"><path d="m418.812 138.508h-124.943l29.64-118.629c2.523-10.102-5.132-19.879-15.523-19.879h-207.741c-8.29 0-15.207 6.332-15.938 14.59l-23.084 260.855c-.828 9.351 6.549 17.41 15.938 17.41h125.404l-18.973 185.517c-1.693 16.56 19.969 24.248 29.186 10.568l219.303-325.492c7.145-10.605-.466-24.94-13.269-24.94zm-196.889 279.59 14.279-139.614c.965-9.434-6.449-17.628-15.917-17.628h-125.646l20.252-228.856h172.605l-29.64 118.63c-2.524 10.1 5.134 19.878 15.523 19.878h115.36zm-56.005-295.627-3.503 37.953c-.811 8.783-8.582 15.271-17.403 14.462-8.799-.813-15.274-8.604-14.461-17.403l3.503-37.953c.813-8.799 8.602-15.259 17.403-14.462 8.799.812 15.274 8.604 14.461 17.403z"/></svg>