<svg id="Layer_1" enable-background="new 0 0 495.97 495.97" height="512" viewBox="0 0 495.97 495.97" width="512" xmlns="http://www.w3.org/2000/svg"><path d="m78.273 237.633c-6.249-6.248-16.379-6.248-22.628 0l-33.894 33.894c-24.927 24.928-24.926 65.487 0 90.414 24.926 24.926 65.487 24.928 90.415 0 24.926-24.927 24.927-65.486 0-90.414zm11.265 101.68c-12.45 12.449-32.709 12.449-45.159 0-12.451-12.45-12.45-32.709 0-45.16l22.58-22.58 22.58 22.58c12.449 12.451 12.45 32.71-.001 45.16zm159.34 13.654c-6.249-6.249-16.379-6.249-22.627 0l-33.895 33.894c-24.986 24.986-24.987 65.426 0 90.414 24.926 24.926 65.486 24.928 90.415 0 24.928-24.927 24.928-65.487 0-90.414zm11.267 101.68c-12.451 12.45-32.709 12.45-45.161 0-12.45-12.451-12.45-32.709 0-45.16l22.581-22.58 22.58 22.58c12.45 12.451 12.45 32.709 0 45.16zm214.073-268.682-33.894-33.894c-6.248-6.248-16.379-6.248-22.627 0l-33.894 33.893c-24.986 24.986-24.991 65.426 0 90.415 24.925 24.925 65.485 24.929 90.414 0 24.929-24.927 24.929-65.487.001-90.414zm-67.787 67.786c-12.481-12.481-12.481-32.676 0-45.159l22.58-22.58 22.58 22.58c6.031 6.031 9.353 14.051 9.353 22.58-.001 28.226-34.38 42.713-54.513 22.579zm-378.345-79.385v-112.803c0-8.837 7.164-16 16-16s16 7.163 16 16v112.803c0 8.837-7.164 16-16 16s-16-7.163-16-16zm169.726 123.023v-133.306c0-8.837 7.164-16 16-16s16 7.163 16 16v133.306c0 8.837-7.164 16-16 16s-16-7.163-16-16zm183.394-185.704v-44.425c0-8.837 7.163-16 16-16s16 7.163 16 16v44.425c0 8.837-7.163 16-16 16s-16-7.164-16-16zm76.319-9.114v-86.571c0-8.837 7.163-16 16-16s16 7.163 16 16v86.571c0 8.837-7.163 16-16 16s-16-7.163-16-16zm-189.089 111.663v-125.332c0-8.837 7.163-16 16-16s16 7.163 16 16v125.332c0 8.837-7.163 16-16 16s-16-7.163-16-16zm0 83.155v-27.338c0-8.837 7.163-16 16-16s16 7.163 16 16v27.338c0 8.837-7.163 16-16 16s-16-7.163-16-16zm-172.004-102.519v-50.152c0-8.837 7.164-16 16-16s16 7.163 16 16v50.152c0 8.837-7.164 16-16 16s-16-7.163-16-16zm0-110.524v-22.783c0-8.837 7.164-16 16-16s16 7.163 16 16v22.782c0 8.837-7.164 16-16 16s-16-7.162-16-15.999z"/></svg>