<svg id="Layer_1" enable-background="new 0 0 496 496" height="512" viewBox="0 0 496 496" width="512" xmlns="http://www.w3.org/2000/svg"><path d="m346.72 93.182c-16.858-51.784-65.436-87.857-121.22-87.857-77.079 0-134.418 68.038-126.8 138.038-54.679 1.488-98.7 46.431-98.7 101.462 0 46.215 31.153 86.337 75.408 98.083l-2.346 26.506c-.827 9.353 6.549 17.41 15.938 17.41h44.28l-7.197 70.372c-1.693 16.545 19.959 24.261 29.187 10.568l81.821-121.44h131.409c70.304 0 127.5-57.196 127.5-127.5 0-78.59-70.971-139.134-149.28-125.642zm21.78 221.143h-115.889c-1.631-7.278-8.092-12.5-15.611-12.5h-42.595l9.133-37.184c2.107-8.582-3.141-17.247-11.722-19.354-8.584-2.108-17.246 3.14-19.354 11.722l-14 57c-2.477 10.082 5.173 19.816 15.538 19.816h32.927l-42.513 63.098 2.503-24.47c.965-9.431-6.448-17.628-15.917-17.628h-44.521c1.123-12.691 7.44-84.076 8.459-95.59.779-8.802-5.725-16.569-14.527-17.348-8.797-.778-16.569 5.725-17.348 14.527l-4.776 53.974c-27.256-9.556-46.287-35.4-46.287-65.563 0-43.295 39.459-76.41 82.484-68.292 11.05 2.082 20.721-7.589 18.705-18.604-1.233-6.737-3.189-19.51-3.189-25.104 0-52.659 42.841-95.5 95.5-95.5 46.046 0 85.535 32.8 93.896 77.991 1.745 9.431 11.355 15.224 20.514 12.358 61.487-19.25 124.09 26.87 124.09 91.151 0 52.659-42.841 95.5-95.5 95.5zm-83.449 83.449-6.109 16.078c-2.368 6.231-8.335 10.317-14.957 10.317-3.802 0-4.405-.557-21.762-7.153-8.26-3.139-12.412-12.379-9.273-20.64l6.109-16.078c3.138-8.255 12.381-12.412 20.641-9.273l16.078 6.11c8.259 3.138 12.411 12.379 9.273 20.639zm54.549 59.701v17.2c0 8.837-7.163 16-16 16h-17.2c-8.837 0-16-7.163-16-16v-17.2c0-8.837 7.163-16 16-16h17.2c8.837 0 16 7.163 16 16zm62.603-54.111c-2.16 8.059-7.273 9.611-22.351 18.315-7.651 4.417-17.437 1.798-21.856-5.856l-8.601-14.896c-4.415-7.647-1.795-17.439 5.856-21.857l14.896-8.6c7.651-4.417 17.438-1.798 21.856 5.856 8.723 15.107 12.355 18.99 10.2 27.038z"/></svg>