<svg id="Layer_1" enable-background="new 0 0 496.003 496.003" height="512" viewBox="0 0 496.003 496.003" width="512" xmlns="http://www.w3.org/2000/svg"><path d="m221.721 449.232-6 10c-4.544 7.574-14.37 10.036-21.952 5.488-7.577-4.546-10.034-14.375-5.488-21.952l6-10c4.547-7.577 14.374-10.033 21.952-5.488 7.578 4.547 10.035 14.375 5.488 21.952zm64.142-22.168c-7.699-4.343-17.456-1.622-21.797 6.074l-22 39c-4.342 7.697-1.622 17.456 6.074 21.797 7.696 4.342 17.455 1.623 21.797-6.074l22-39c4.342-7.696 1.622-17.455-6.074-21.797zm60.37.216c-7.577-4.545-17.404-2.089-21.952 5.488l-6 10c-4.546 7.577-2.089 17.405 5.488 21.952 7.582 4.549 17.408 2.085 21.952-5.488l6-10c4.547-7.577 2.09-17.405-5.488-21.952zm52.332-160.61c25.283 68.827-26.034 141.958-99.196 141.958-120.593 0-112.854.079-114.639-.162l-54.171 80.401c-9.238 13.714-30.877 5.966-29.186-10.568l5.433-53.113h-32.121c-9.388 0-16.766-8.059-15.937-17.411l.276-3.121c-34.527-10.974-59.023-43.352-59.023-80.758 0-44.808 34.963-81.604 79.04-84.542-5.145-62.893 53.61-121.625 123.433-109.562 21.167-37.32 60.85-60.792 104.451-60.792 102.57 0 157.157 120.585 91.64 197.67zm-165.032-126.326c23.185 12.18 41.461 32.756 50.447 58.135 36.845-5.386 73.616 8.855 97.273 37.864 37.127-58.11-4.753-135.343-74.328-135.343-29.886 0-57.259 15.037-73.392 39.344zm139.468 162.652c0-49.471-48.184-85.149-95.678-70.279-9.15 2.866-18.767-2.922-20.513-12.358-6.446-34.841-36.894-60.128-72.396-60.128-40.601 0-73.632 33.032-73.632 73.633 0 4.044 1.469 13.907 2.513 19.619 2.017 11.039-7.685 20.678-18.705 18.601-32.69-6.164-62.588 19.003-62.588 51.815 0 20.758 12.111 39.029 29.958 47.584l4.827-54.544c.779-8.802 8.545-15.304 17.348-14.527 8.802.779 15.306 8.546 14.527 17.348l-6.498 73.428h32.362c9.483 0 16.88 8.209 15.917 17.628l-.737 7.21 23.881-35.444h-20.572c-10.38 0-18.011-9.747-15.538-19.816l11.254-45.821c2.108-8.582 10.77-13.83 19.354-11.722 8.582 2.107 13.83 10.773 11.722 19.354l-6.387 26.004h30.239c11.739 0 21.315 12.998 12.522 26.049h93.188c40.601-.002 73.632-33.033 73.632-73.634zm107-129.996h-18c-8.836 0-16 7.164-16 16s7.164 16 16 16h18c8.836 0 16-7.164 16-16s-7.163-16-16-16zm-173.152-123c8.836 0 16-7.164 16-16v-18c0-8.836-7.164-16-16-16s-16 7.164-16 16v18c0 8.836 7.164 16 16 16zm111.092 5.325-12.728 12.728c-10.113 10.113-2.809 27.314 11.313 27.314 4.094 0 8.189-1.563 11.313-4.686l12.728-12.728c6.249-6.249 6.249-16.379 0-22.627-6.246-6.248-16.377-6.249-22.626-.001zm-232.038 35.463c3.124 3.125 7.219 4.687 11.313 4.687 14.125 0 21.423-17.205 11.313-27.313l-12.728-12.728c-6.249-6.249-16.379-6.249-22.627 0-6.249 6.248-6.249 16.379 0 22.627z"/></svg>